<svg xmlns="http://www.w3.org/2000/svg" viewBox="0 0 440 280">
  <path fill="#fff" d="M0 0h440v280H0z"/>
  <path fill="#333" d="M158.1 194.48H37.1V73.5h60.5V56.24H37.1A17.28 17.28 0 0 0 19.84 73.5V194.5a17.28 17.28 0 0 0 17.28 17.28H158.1a17.33 17.33 0 0 0 17.27-17.28v-60.5H158.1zM114.9 56.23V73.5h31l-84.93 84.95 12.18 12.18L158.1 85.7v31h17.27V56.24z"/>
  <g fill="#333">
    <path d="M210.6 89.84v21.4h-1.86V60.6h15.82a21.66 21.66 0 0 1 7.1 1.05 14.08 14.08 0 0 1 5.1 3 12.37 12.37 0 0 1 3.1 4.66 18.17 18.17 0 0 1 .02 12.1 11.8 11.8 0 0 1-3.08 4.55 13.9 13.9 0 0 1-5.1 2.9 22.8 22.8 0 0 1-7.14 1zm0-1.87h13.96a19.42 19.42 0 0 0 6.57-1 12.4 12.4 0 0 0 4.5-2.7 10.36 10.36 0 0 0 2.58-3.97 14.27 14.27 0 0 0 .83-4.86 15.35 15.35 0 0 0-.82-5.04 10.7 10.7 0 0 0-2.56-4.12 12.4 12.4 0 0 0-4.5-2.78 18.83 18.83 0 0 0-6.58-1.03H210.6zM247.24 91.7a22.9 22.9 0 0 1 1.2-7.6 17.8 17.8 0 0 1 3.37-5.93 15.34 15.34 0 0 1 5.2-3.87 15.8 15.8 0 0 1 6.7-1.4 16 16 0 0 1 6.72 1.4 15.13 15.13 0 0 1 5.2 3.87 17.97 17.97 0 0 1 3.36 5.94 22.9 22.9 0 0 1 1.2 7.6v1.45a23.23 23.23 0 0 1-1.18 7.58 17.57 17.57 0 0 1-3.36 5.93 15.33 15.33 0 0 1-5.2 3.88 15.8 15.8 0 0 1-6.68 1.4 16 16 0 0 1-6.73-1.4 15.27 15.27 0 0 1-5.22-3.88 17.78 17.78 0 0 1-3.36-5.93 22.9 22.9 0 0 1-1.2-7.58zm1.88 1.45a20.75 20.75 0 0 0 1 6.43 16.7 16.7 0 0 0 2.86 5.4 13.87 13.87 0 0 0 4.6 3.7 13.5 13.5 0 0 0 6.18 1.37 13.32 13.32 0 0 0 6.14-1.37 13.75 13.75 0 0 0 4.56-3.7 16.9 16.9 0 0 0 2.85-5.4 20.75 20.75 0 0 0 1-6.43V91.7a20.37 20.37 0 0 0-1-6.36 16.94 16.94 0 0 0-2.86-5.4 14.17 14.17 0 0 0-4.6-3.75 14.16 14.16 0 0 0-12.3 0 13.98 13.98 0 0 0-4.58 3.75 17.13 17.13 0 0 0-2.85 5.4 20.37 20.37 0 0 0-.98 6.34zM318.06 92.77a29.98 29.98 0 0 1-.96 7.84 18.67 18.67 0 0 1-2.77 6.06 12.3 12.3 0 0 1-10.4 5.27 17.7 17.7 0 0 1-4.26-.5 14.94 14.94 0 0 1-3.56-1.34 13.6 13.6 0 0 1-2.86-2.08 12.67 12.67 0 0 1-2.14-2.63v20.3h-1.88V73.6h1.88v6.7a14.9 14.9 0 0 1 2.16-3 13.2 13.2 0 0 1 2.85-2.34 14 14 0 0 1 3.54-1.52 15.68 15.68 0 0 1 4.22-.53 13.2 13.2 0 0 1 6 1.33 12.42 12.42 0 0 1 4.46 3.8 17.83 17.83 0 0 1 2.78 6 30.78 30.78 0 0 1 .96 8zm-1.92-.73a30.1 30.1 0 0 0-.75-6.93 16.9 16.9 0 0 0-2.27-5.45 10.52 10.52 0 0 0-9.23-4.87 13.9 13.9 0 0 0-5.17.87 12.12 12.12 0 0 0-3.68 2.25 12.37 12.37 0 0 0-2.47 3.06 17.6 17.6 0 0 0-1.48 3.32v17.6a12.78 12.78 0 0 0 1.8 3.27 11.6 11.6 0 0 0 2.72 2.6 12.8 12.8 0 0 0 3.7 1.7 16.6 16.6 0 0 0 4.65.6 10.43 10.43 0 0 0 9.16-4.88 17.12 17.12 0 0 0 2.26-5.48 30.1 30.1 0 0 0 .74-6.93zM325.43 91.7a22.9 22.9 0 0 1 1.2-7.6 17.8 17.8 0 0 1 3.37-5.93 15.34 15.34 0 0 1 5.2-3.87 15.8 15.8 0 0 1 6.68-1.4 16 16 0 0 1 6.73 1.4 15.13 15.13 0 0 1 5.2 3.87 17.97 17.97 0 0 1 3.37 5.94 22.9 22.9 0 0 1 1.2 7.6v1.45a23.23 23.23 0 0 1-1.18 7.58 17.57 17.57 0 0 1-3.37 5.93 15.33 15.33 0 0 1-5.2 3.88 15.8 15.8 0 0 1-6.68 1.4 16 16 0 0 1-6.73-1.4 15.27 15.27 0 0 1-5.22-3.88 17.78 17.78 0 0 1-3.37-5.93 22.9 22.9 0 0 1-1.2-7.58zm1.88 1.45a20.75 20.75 0 0 0 1 6.43 16.7 16.7 0 0 0 2.87 5.4 13.87 13.87 0 0 0 4.6 3.7 13.5 13.5 0 0 0 6.18 1.37 13.32 13.32 0 0 0 6.14-1.37 13.75 13.75 0 0 0 4.55-3.7 16.9 16.9 0 0 0 2.85-5.4 20.75 20.75 0 0 0 1-6.43V91.7a20.37 20.37 0 0 0-1-6.36 16.94 16.94 0 0 0-2.87-5.4 14.17 14.17 0 0 0-4.6-3.75 14.16 14.16 0 0 0-12.3 0 13.98 13.98 0 0 0-4.58 3.75 17.13 17.13 0 0 0-2.85 5.4 20.37 20.37 0 0 0-1 6.34zM392.7 111.24v-6.1a12.3 12.3 0 0 1-4.87 4.96 16.2 16.2 0 0 1-8.1 1.83 15.5 15.5 0 0 1-5.07-.78 9.5 9.5 0 0 1-3.9-2.5 11.8 11.8 0 0 1-2.5-4.48 21.5 21.5 0 0 1-.92-6.67V73.6h1.88v23.97a18.84 18.84 0 0 0 .78 5.82 10.16 10.16 0 0 0 2.18 3.85 8.1 8.1 0 0 0 3.3 2.14 12.7 12.7 0 0 0 4.17.65 16.5 16.5 0 0 0 5.43-.8 11.7 11.7 0 0 0 3.86-2.15 10.2 10.2 0 0 0 2.47-3.17 14.56 14.56 0 0 0 1.3-3.86V73.6h1.9v37.64zM410.68 63.44V73.6h8.56v1.9h-8.56v26.73a14.5 14.5 0 0 0 .45 4 5.97 5.97 0 0 0 1.24 2.38 3.9 3.9 0 0 0 1.8 1.16 7.8 7.8 0 0 0 2.18.3 18.6 18.6 0 0 0 1.9-.1q.85-.08 1.82-.22l.3 1.77a4.4 4.4 0 0 1-.9.22q-.5.07-1.07.12-.55.06-1.08.07l-.87.03a10.7 10.7 0 0 1-3.23-.45 5.33 5.33 0 0 1-2.42-1.57 7.4 7.4 0 0 1-1.5-2.98 17.86 17.86 0 0 1-.53-4.7v-26.7h-6.96V73.6h6.97V63.44z"/>
  </g>
  <g fill="#333">
    <path d="M209.4 152.33h-1.56v-13.8h1.4l.13 1.32a4.33 4.33 0 0 1 3.2-1.56c2.43 0 4.04 1.84 4.04 5.04 0 3.42-1.53 5.38-4 5.38a4.3 4.3 0 0 1-3.2-1.52zm2.83-4.9c1.8 0 2.8-1.55 2.8-4.07 0-2.4-1.03-3.78-2.82-3.78a3.73 3.73 0 0 0-2.8 1.48v4.9a3.65 3.65 0 0 0 2.83 1.47M223.37 138.3c2.74 0 4.76 2 4.76 5.08 0 3.3-1.92 5.34-4.76 5.34-2.88 0-4.8-2.05-4.8-5.34a4.73 4.73 0 0 1 4.8-5.1m0 9.17c1.92 0 3.15-1.6 3.15-4.07 0-2.28-1.3-3.8-3.15-3.8-1.86 0-3.2 1.52-3.2 3.8 0 2.46 1.22 4.07 3.2 4.07M229.32 138.53h1.63l2.63 7.98h.04l2.4-7.97h1.42l2.42 7.98h.04l2.6-7.97h1.6l-3.37 9.96h-1.6l-2.4-7.75h-.04l-2.4 7.74h-1.58l-3.4-9.97M250.06 138.28c2.8 0 4.1 1.92 4.1 4.45a5.8 5.8 0 0 1-.1.84h-7.17c.03 2.44 1.12 3.84 3.27 3.84a5.38 5.38 0 0 0 2.92-.93l.7 1.08a6.45 6.45 0 0 1-3.7 1.2c-3.04 0-4.8-2.03-4.8-5.35 0-3.13 2.03-5.12 4.76-5.12m-3.1 4.22h5.65c.03-1.65-.66-3-2.5-3a3.2 3.2 0 0 0-3.15 3M256.66 138.53h1.44l.14 1.68a3.42 3.42 0 0 1 3.03-1.92 4 4 0 0 1 1.27.2l-.3 1.48a3.2 3.2 0 0 0-1.18-.2c-1.17 0-2.05.7-2.8 2.03v6.7h-1.6zM268.13 138.28c2.8 0 4.08 1.92 4.08 4.45a5.8 5.8 0 0 1-.06.84h-7.18c.04 2.44 1.13 3.84 3.28 3.84a5.38 5.38 0 0 0 2.92-.93l.7 1.08a6.45 6.45 0 0 1-3.7 1.2c-3.03 0-4.8-2.03-4.8-5.35 0-3.13 2.04-5.12 4.77-5.12m-3.1 4.22h5.65c.02-1.65-.67-3-2.52-3a3.2 3.2 0 0 0-3.14 3M274.23 143.34c0-3.2 1.6-5.05 4.05-5.05a4.38 4.38 0 0 1 3.17 1.5V134h1.6v14.5h-1.4l-.14-1.34a4.3 4.3 0 0 1-3.24 1.56c-2.5 0-4.03-1.96-4.03-5.38m7.22 2.63v-4.9a3.77 3.77 0 0 0-2.82-1.5c-1.77 0-2.8 1.4-2.8 3.8 0 2.5.97 4.06 2.8 4.06a3.68 3.68 0 0 0 2.82-1.46M290.92 134h1.6v5.8a4.34 4.34 0 0 1 3.14-1.5c2.42 0 4.05 1.84 4.05 5.04 0 3.42-1.54 5.38-4.04 5.38a4.25 4.25 0 0 1-3.23-1.56l-.13 1.33h-1.38zm4.4 13.43c1.82 0 2.78-1.55 2.78-4.07 0-2.4-1.02-3.78-2.8-3.78a3.7 3.7 0 0 0-2.8 1.48v4.9a3.62 3.62 0 0 0 2.8 1.47M302.5 151.2a1.5 1.5 0 0 0 1.55-1.2l.62-1.57-3.7-9.9h1.64l2.83 7.87h.04l2.75-7.87h1.6l-4.2 11.6c-.7 1.87-1.72 2.4-3.07 2.4a4.86 4.86 0 0 1-1.72-.34l.46-1.3a3.48 3.48 0 0 0 1.2.3M236 185.74v15.55h-5.75v-15.56a93.88 93.88 0 0 0-3.52-12.15c-1.2-3.6-2.47-7.16-3.68-10.73h6.05l4.1 15.1 3.9-15.1h5.82zM257.84 198.76a7.7 7.7 0 0 1-12.1 0c-1.1-1.44-1.6-3.7-1.6-6.74V182c0-3.06.5-5.3 1.6-6.74a7.7 7.7 0 0 1 12.1 0c1.1 1.44 1.6 3.68 1.6 6.74v10.02c0 3.05-.5 5.3-1.6 6.74m-3.58-17.8c0-2.65-.8-3.98-2.47-3.98s-2.5 1.33-2.5 3.98V193c0 2.65.82 3.97 2.5 3.97s2.46-1.32 2.46-3.97zM273.45 201.3v-3.12c-2.08 2.36-4.04 3.52-5.94 3.52a3.2 3.2 0 0 1-3.33-2.14 14.45 14.45 0 0 1-.46-4.26v-22.64h5.2v21.1a13.27 13.27 0 0 0 .05 2q.18 1.2 1.2 1.2 1.57 0 3.3-2.4v-21.9h5.18v28.63zM293.15 168.3v33h-5.77v-33h-6.1v-5.43h18.1v5.42h-6.23M309.84 201.3v-3.12c-2.08 2.36-4.03 3.52-5.94 3.52a3.2 3.2 0 0 1-3.34-2.14 14.45 14.45 0 0 1-.46-4.26v-22.64h5.2v21.1a13.27 13.27 0 0 0 .04 2q.18 1.2 1.2 1.2 1.57 0 3.3-2.4v-21.9h5.18v28.63zM334.2 198.47a4.1 4.1 0 0 1-4.14 3.23c-1.85 0-3.63-1.04-5.36-3.17v2.76h-5.2v-38.43h5.2v12.56q2.5-3.1 5.36-3.1a4.1 4.1 0 0 1 4.14 3.2 22.27 22.27 0 0 1 .52 5.77v11.4a22.88 22.88 0 0 1-.52 5.77m-4.66-17.57c0-2.6-.75-3.92-2.25-3.92a3.7 3.7 0 0 0-2.6 1.27v17.45a3.7 3.7 0 0 0 2.6 1.27c1.5 0 2.24-1.27 2.24-3.86zM354.2 195.47a7.33 7.33 0 0 1-1.22 3.1 7.2 7.2 0 0 1-6.28 3.13 7.43 7.43 0 0 1-6.28-2.94c-1.1-1.44-1.67-3.7-1.67-6.74V182c0-3.06.52-5.3 1.62-6.74a7.4 7.4 0 0 1 6.22-2.94 7.18 7.18 0 0 1 6.1 2.94c1.1 1.44 1.6 3.68 1.6 6.74v5.93h-10.36V193c0 2.65.86 3.97 2.65 3.97a2.22 2.22 0 0 0 2.3-2.07 30.37 30.37 0 0 0 .1-3.52h5.3v.75c0 1.67-.05 2.83-.1 3.34m-5.08-14.5q0-4-2.6-4-2.58 0-2.58 4v2.64h5.18z"/>
  </g>
</svg>
