<svg xmlns="http://www.w3.org/2000/svg" viewBox="0 0 128 128">
  <path fill="#333" d="M99.37 99.37H28.63V28.63H64v-10.1H28.63a10.1 10.1 0 0 0-10.1 10.1v70.74a10.1 10.1 0 0 0 10.1 10.1h70.74a10.13 10.13 0 0 0 10.1-10.1V64h-10.1zM74.1 18.53v10.1h18.14L42.58 78.3l7.12 7.12 49.67-49.66V53.9h10.1V18.52z"/>
  <!-- Disabled version <path fill="#333" d="M108.97 102.4l-9.6-9.6L70.57 64l-7.08-7.07-28.3-28.3-9.6-9.6L22.57 16 16 22.57l3.03 3.03a6.4 6.4 0 0 0-.5 3.03v70.74a10.13 10.13 0 0 0 10.1 10.1h70.74a6.4 6.4 0 0 0 3.03-.5l3.03 3.03 6.57-6.57zm-80.34-3.03V35.2L57.43 64 42.78 78.65l7.07 7.08L64.5 71.07l28.8 28.8H28.64zm48.5-41.43L99.38 35.7v18.2h10.1V18.52H74.1v10.1h18.2L70.05 50.86m29.3 29.3l10.1 10.1V64h-10.1M64 28.63v-10.1H37.73l10.1 10.1"/>
  -->
</svg>
