<svg xmlns="http://www.w3.org/2000/svg" viewBox="0 0 210 140">
  <path fill="#333" d="M0 0h210v140H0z"/>
  <path fill="#fff" d="M195.67 43h-29.2V13.8h14.6V9.63h-14.6a4.17 4.17 0 0 0-4.16 4.17V43a4.17 4.17 0 0 0 4.18 4.17h29.2a4.18 4.18 0 0 0 4.17-4.17V28.4h-4.17zM185.24 9.63v4.17h7.48l-20.5 20.5 2.95 2.93 20.5-20.5v7.5h4.16V9.63zM11.56 28.3v14h-1.23V9.14H20.7a14.2 14.2 0 0 1 4.64.7 9.22 9.22 0 0 1 3.35 2 8.1 8.1 0 0 1 2 3.04 11.06 11.06 0 0 1 .66 4 11 11 0 0 1-.67 3.94 7.74 7.74 0 0 1-2 3 9.1 9.1 0 0 1-3.36 1.9 14.93 14.93 0 0 1-4.67.65zm0-1.23h9.14a12.72 12.72 0 0 0 4.3-.65 8.13 8.13 0 0 0 3-1.77A6.78 6.78 0 0 0 29.64 22a9.35 9.35 0 0 0 .54-3.18 10.05 10.05 0 0 0-.54-3.3A7 7 0 0 0 28 12.86 8.13 8.13 0 0 0 25 11a12.33 12.33 0 0 0-4.3-.67h-9.14zm24 2.43a15 15 0 0 1 .8-5 11.65 11.65 0 0 1 2.2-3.87A10 10 0 0 1 42 18.1a10.35 10.35 0 0 1 4.37-.9 10.5 10.5 0 0 1 4.4.9 9.9 9.9 0 0 1 3.42 2.55 11.77 11.77 0 0 1 2.2 3.88 15 15 0 0 1 .77 5v1a15.2 15.2 0 0 1-.77 5 11.5 11.5 0 0 1-2.2 3.88 10 10 0 0 1-3.4 2.56 10.35 10.35 0 0 1-4.37.9 10.48 10.48 0 0 1-4.43-1 10 10 0 0 1-3.42-2.54 11.65 11.65 0 0 1-2.2-3.87 15 15 0 0 1-.8-5zm1.22 1a13.6 13.6 0 0 0 .65 4.22 10.93 10.93 0 0 0 1.88 3.53 9.08 9.08 0 0 0 3 2.43 8.85 8.85 0 0 0 4.08.9 8.73 8.73 0 0 0 4-.9 9 9 0 0 0 3-2.43 11.06 11.06 0 0 0 1.87-3.53 13.6 13.6 0 0 0 .65-4.2v-1a13.34 13.34 0 0 0-.66-4.17 11.1 11.1 0 0 0-1.88-3.53 8.93 8.93 0 0 0-11.06-2.46 9.16 9.16 0 0 0-3 2.46 11.22 11.22 0 0 0-1.87 3.53 13.34 13.34 0 0 0-.65 4.16zm45.15-.3a19.64 19.64 0 0 1-.63 5.15 12.23 12.23 0 0 1-1.8 4 8 8 0 0 1-6.82 3.45 11.6 11.6 0 0 1-2.8-.32 9.8 9.8 0 0 1-2.33-.9 8.9 8.9 0 0 1-1.88-1.35 8.3 8.3 0 0 1-1.4-1.72v13.3H63V17.68h1.23v4.4a9.76 9.76 0 0 1 1.4-2 8.65 8.65 0 0 1 1.88-1.53 9.18 9.18 0 0 1 2.33-1 10.27 10.27 0 0 1 2.77-.35 8.65 8.65 0 0 1 3.9.86 8.13 8.13 0 0 1 2.94 2.48 11.68 11.68 0 0 1 1.82 3.94 20.16 20.16 0 0 1 .63 5.24zm-1.25-.47a19.72 19.72 0 0 0-.5-4.53 11.08 11.08 0 0 0-1.47-3.58 6.9 6.9 0 0 0-6-3.2 9.1 9.1 0 0 0-3.36.58 7.94 7.94 0 0 0-2.4 1.47 8.1 8.1 0 0 0-1.63 2 11.53 11.53 0 0 0-1 2.18v11.53a8.37 8.37 0 0 0 1.18 2.14A7.6 7.6 0 0 0 67.24 40a8.4 8.4 0 0 0 2.4 1.12 10.88 10.88 0 0 0 3.06.4 6.83 6.83 0 0 0 6-3.2 11.2 11.2 0 0 0 1.48-3.6 19.72 19.72 0 0 0 .5-4.52zm6.08-.23a15 15 0 0 1 .8-5 11.65 11.65 0 0 1 2.2-3.87 10 10 0 0 1 3.4-2.54 10.35 10.35 0 0 1 4.38-.93 10.5 10.5 0 0 1 4.4.9 9.9 9.9 0 0 1 3.42 2.55 11.77 11.77 0 0 1 2.2 3.88 15 15 0 0 1 .8 5v1a15.2 15.2 0 0 1-.78 5 11.5 11.5 0 0 1-2.2 3.9 10 10 0 0 1-3.38 2.45 10.35 10.35 0 0 1-4.37.9 10.48 10.48 0 0 1-4.4-.9 10 10 0 0 1-3.43-2.54 11.65 11.65 0 0 1-2.2-3.86 15 15 0 0 1-.8-5zm1.23 1a13.6 13.6 0 0 0 .63 4.22 10.93 10.93 0 0 0 1.88 3.53 9.08 9.08 0 0 0 3 2.43 8.85 8.85 0 0 0 4.07.9 8.73 8.73 0 0 0 4-.9 9 9 0 0 0 3-2.43 11.06 11.06 0 0 0 1.87-3.53 13.6 13.6 0 0 0 .65-4.2v-1a13.34 13.34 0 0 0-.66-4.17 11.1 11.1 0 0 0-1.88-3.53 8.93 8.93 0 0 0-11.06-2.46 9.16 9.16 0 0 0-3 2.46 11.22 11.22 0 0 0-1.86 3.53A13.34 13.34 0 0 0 88 29.5zm42.82 11.8v-4a8 8 0 0 1-3.2 3.26 10.6 10.6 0 0 1-5.3 1.2 10.15 10.15 0 0 1-3.3-.5 6.2 6.2 0 0 1-2.56-1.65 7.73 7.73 0 0 1-1.65-2.9 14.1 14.1 0 0 1-.57-4.38V17.67h1.23v15.7a12.34 12.34 0 0 0 .5 3.82 6.66 6.66 0 0 0 1.43 2.52 5.3 5.3 0 0 0 2.15 1.4 8.3 8.3 0 0 0 2.73.44 10.8 10.8 0 0 0 3.55-.52 7.66 7.66 0 0 0 2.53-1.4 6.67 6.67 0 0 0 1.65-2.1 9.54 9.54 0 0 0 .85-2.52V17.66h1.25V42.3zM142.6 11v6.65h5.6v1.25h-5.6v17.5a9.5 9.5 0 0 0 .3 2.62 3.9 3.9 0 0 0 .8 1.56 2.55 2.55 0 0 0 1.2.75 5.1 5.1 0 0 0 1.4.2 12.18 12.18 0 0 0 1.26-.07l1.18-.15.2 1.18a2.9 2.9 0 0 1-.58.14l-.7.1h-1.3a7 7 0 0 1-2.1-.3 3.5 3.5 0 0 1-1.6-1 4.85 4.85 0 0 1-1-2 11.7 11.7 0 0 1-.33-3.1V18.9h-4.56v-1.24h4.56V11zM36.76 76.83h-1.5V63.7h1.34l.13 1.25a4.13 4.13 0 0 1 3.05-1.48c2.3 0 3.84 1.75 3.84 4.8 0 3.26-1.46 5.13-3.82 5.13a4.1 4.1 0 0 1-3-1.44zm2.7-4.66c1.7 0 2.64-1.48 2.64-3.88s-1-3.6-2.67-3.6a3.55 3.55 0 0 0-2.67 1.4v4.67a3.48 3.48 0 0 0 2.7 1.4m10.6-8.7c2.6 0 4.52 1.9 4.52 4.84 0 3.15-1.83 5.1-4.53 5.1s-4.57-2-4.57-5.1a4.5 4.5 0 0 1 4.16-4.8l.4-.02m0 8.72c1.84 0 3-1.55 3-3.9 0-2.17-1.23-3.6-3-3.6s-3 1.43-3 3.6c0 2.35 1.16 3.9 3 3.9m5.68-8.5h1.56l2.5 7.6h.04l2.28-7.6h1.36l2.3 7.6h.04l2.48-7.6h1.52l-3.22 9.48h-1.52l-2.28-7.37h-.04l-2.26 7.4h-1.52l-3.24-9.5zm19.75-.25c2.67 0 3.9 1.83 3.9 4.24a5.53 5.53 0 0 1-.08.8h-6.86c0 2.3 1.08 3.64 3.13 3.64a5.12 5.12 0 0 0 2.78-.9l.68 1a6.15 6.15 0 0 1-3.53 1.13c-2.88 0-4.56-1.92-4.56-5.08 0-3 1.94-4.9 4.53-4.9m-3 4h5.43c0-1.56-.64-2.84-2.4-2.84a3.06 3.06 0 0 0-3 2.85m9.26-3.7h1.37l.13 1.6a3.26 3.26 0 0 1 2.9-1.85 3.8 3.8 0 0 1 1.2.18l-.3 1.43a2.88 2.88 0 0 0-3.73 1.63l-.04.1v6.38h-1.55zm10.9-.25c2.68 0 3.9 1.83 3.9 4.24a5.53 5.53 0 0 1-.07.8h-6.85c0 2.3 1.08 3.64 3.13 3.64a5.12 5.12 0 0 0 2.77-.9l.68 1a6.15 6.15 0 0 1-3.53 1.13c-2.9 0-4.57-1.92-4.57-5.08 0-3 1.94-4.9 4.53-4.9m-3 4h5.42c0-1.56-.64-2.84-2.4-2.84a3.06 3.06 0 0 0-3 2.85m8.82.88c0-3.05 1.53-4.8 3.85-4.8a4.18 4.18 0 0 1 3 1.43V59.4h1.52v13.8h-1.32l-.15-1.26a4.08 4.08 0 0 1-3.1 1.5c-2.37 0-3.83-1.87-3.83-5.13m6.87 2.5v-4.7a3.6 3.6 0 0 0-2.7-1.4C101 64.7 100 66 100 68.3s.93 3.87 2.67 3.87a3.5 3.5 0 0 0 2.7-1.4m9-11.4h1.53v5.54a4.14 4.14 0 0 1 3-1.42c2.3 0 3.86 1.75 3.86 4.8 0 3.26-1.48 5.13-3.86 5.13a4 4 0 0 1-3.07-1.47l-.13 1.26h-1.32zm4.2 12.8c1.74 0 2.65-1.48 2.65-3.88s-1-3.6-2.65-3.6a3.52 3.52 0 0 0-2.67 1.4v4.67a3.44 3.44 0 0 0 2.67 1.4m6.83 3.58a1.43 1.43 0 0 0 1.48-1.13l.58-1.5-3.53-9.43h1.57l2.7 7.5 2.6-7.5h1.54l-4 11c-.68 1.77-1.65 2.27-2.92 2.27a4.63 4.63 0 0 1-1.65-.3l.44-1.23a3.32 3.32 0 0 0 1.17.27M62.1 108.66v14.8h-5.5v-14.8a89.4 89.4 0 0 0-3.34-11.57c-1.15-3.4-2.36-6.8-3.5-10.2h5.75l3.9 14.37 3.74-14.37h5.54zM82.87 121a7.33 7.33 0 0 1-11.52 0c-1-1.37-1.54-3.5-1.54-6.42v-9.54c0-2.9.5-5 1.56-6.42a7.33 7.33 0 0 1 11.52 0c1 1.37 1.54 3.5 1.54 6.42v9.54c0 2.9-.48 5-1.53 6.42m-3.4-16.95c0-2.52-.78-3.78-2.37-3.78s-2.35 1.26-2.35 3.78v11.46c0 2.54.77 3.8 2.36 3.8s2.37-1.26 2.37-3.8zm18.24 19.4v-3c-2 2.26-3.84 3.36-5.65 3.36a3 3 0 0 1-3.2-2 13.76 13.76 0 0 1-.44-4.04V96.2h4.94v20.07a12.64 12.64 0 0 0 .06 1.92q.16 1.13 1.15 1.13 1.5 0 3.15-2.3V96.2h4.94v27.26zm18.76-31.42v31.42H111V92.03h-5.8v-5.16h17.22v5.16zm15.9 31.43v-3c-2 2.25-3.85 3.35-5.66 3.35a3 3 0 0 1-3.18-2 13.76 13.76 0 0 1-.44-4.04V96.2h4.94v20.07a12.64 12.64 0 0 0 .05 1.92q.18 1.13 1.17 1.13 1.48 0 3.13-2.3V96.2h4.93v27.26zm23.2-2.7a3.9 3.9 0 0 1-3.96 3.08q-2.64 0-5.1-3v2.63h-4.94v-36.6h4.94v12q2.4-3 5.1-3a3.9 3.9 0 0 1 3.95 3.07 21.2 21.2 0 0 1 .47 5.5v10.85a21.8 21.8 0 0 1-.5 5.46m-4.4-16.76c0-2.47-.7-3.73-2.15-3.73a3.5 3.5 0 0 0-2.46 1.2v16.63a3.5 3.5 0 0 0 2.47 1.2c1.44 0 2.15-1.2 2.15-3.66zm23.46 13.92a7 7 0 0 1-1.15 3 6.87 6.87 0 0 1-6 3 7.08 7.08 0 0 1-6-2.8c-1-1.37-1.6-3.5-1.6-6.42v-9.54c0-2.9.5-5 1.55-6.42a7 7 0 0 1 5.92-2.8 6.84 6.84 0 0 1 5.8 2.8c1 1.37 1.55 3.5 1.55 6.42v5.65h-9.87v4.85c0 2.52.82 3.78 2.52 3.78a2.1 2.1 0 0 0 2.2-2 28.92 28.92 0 0 0 .1-3.35h5v.7c0 1.6-.05 2.7-.1 3.2m-4.84-13.83q0-3.78-2.45-3.78t-2.47 3.78v2.52h4.94z"/>
</svg>
